<svg xmlns="http://www.w3.org/2000/svg" viewBox="0 0 512 512" style="height: 512px; width: 512px;"><path d="M0 0h512v512H0z" fill="#ffffff" fill-opacity="0"></path><g class="" transform="translate(0,0)" style="touch-action: none;"><g><path d="M264.7 36L264.7 57.76C270.6 56.49 276.6 54.85 282.7 52.77L282.7 36Z" class="" fill="#000000" fill-opacity="1"></path><path d="M291.4 68.79C257.1 81.22 226 80.48 195 79.88C223.7 95.73 256.1 103.2 287.2 96.46C289.8 87.1 293.2 78.06 291.4 68.79Z" class="" fill="#000000" fill-opacity="0.83"></path><path d="M127.3 79.59C140.5 136.8 152.2 197.3 137.9 285C150.7 302.6 161.9 320.7 171.9 338.7L177 348C250.7 328.7 312.4 325.3 363.9 335.7C366.3 329.2 368.6 322.4 370.6 315.6C317.1 223.8 233.8 146.2 127.3 79.59Z" class="" fill="#000000" fill-opacity="1"></path><path d="M282.7 115.6C276.7 116.5 270.7 117 264.7 117L264.7 159.6C270.8 165.1 276.8 170.7 282.7 176.4Z" class="" fill="#453c41" fill-opacity="1"></path><path d="M56.73 192L56.73 202.3C62.97 206.9 68.97 211.6 74.73 216.5L74.73 192Z" class="" fill="#666332" fill-opacity="1"></path><path d="M408.7 196L408.7 213.9C414.9 216.4 420.9 219.4 426.7 222.8L426.7 196Z" class="" fill="#666332" fill-opacity="1"></path><path d="M22.69 201.1C28.46 220.8 33.57 240.9 34.77 261.5C35.98 282.1 32.97 303.3 22.98 324.3C64.4 312.2 107.4 317.8 144.8 328C116.3 281.1 78.78 235.6 22.69 201.1Z" class="" fill="#000000" fill-opacity="1"></path><path d="M239.5 202.1C241.2 211.6 241.6 223.5 240.8 235.9C242 235.9 243.2 235.8 244.4 235.8C255.2 235.6 265.3 236.2 273.6 237.8L270.2 255.4C262.5 254 251.3 253.6 238.9 254.3C236.8 268.4 233.2 281.9 228.3 292.5L211.9 284.9C215.2 278 217.8 267.5 219.7 256.2C210.4 257.5 201.1 259.3 192.6 261.7L187.8 244.3C198.8 241.2 210.5 239 222 237.5C223.1 224.9 223.1 212.9 221.7 205.3Z" class="" fill="#666332" fill-opacity="1"></path><path d="M394.8 228.1C399.6 248.3 398.5 271.3 394.2 294.1C390.1 315.9 383.1 337.7 374.9 356.6C392 352.4 412.6 348.3 433 345.9C453.4 343.6 473.1 342.5 489.3 346.2C471 277.6 435.6 241 394.8 228.1Z" class="" fill="#000000" fill-opacity="1"></path><path d="M81.64 254.5C82.94 261.8 83.34 269.6 83.16 277.4C88.78 278.1 94.67 279.3 101.2 280.9L96.88 298.3C91.2 296.9 86.34 295.9 81.82 295.2C81.04 301.7 80.02 307.7 78.97 312.9L61.33 309.3C62.22 304.9 63.05 299.8 63.72 294.3C59.18 294.6 54.34 295.1 48.72 295.9L46.13 278.1C52.94 277.1 59.08 276.5 65.05 276.4C65.2 269.7 64.9 263.2 63.92 257.7Z" class="" fill="#666332" fill-opacity="1"></path><path d="M423.1 278.1L441.1 279.3C440.7 285.2 440.2 291.4 439.6 297.7C446.3 298 453.1 298.8 460.1 300.6L455.9 318C449.6 316.5 443.5 315.8 437.3 315.6C436.1 322.8 434.6 329.9 432.6 336.6L415.4 331.4C416.8 326.9 417.9 322 418.8 316.8C413.4 317.5 407.9 318.5 402.3 319.7L398.7 302.1C406.1 300.6 413.6 299.2 421.4 298.4C422.1 291.6 422.6 284.7 423.1 278.1Z" class="" fill="#666332" fill-opacity="1"></path><path d="M56.73 336.2L56.73 349.9C62.77 350.5 68.77 351.2 74.73 351.9L74.73 335.4C68.43 335.5 61.97 335.7 56.73 336.2Z" class="" fill="#000000" fill-opacity="1"></path><path d="M125.8 341.7C124.4 347.2 122.9 352.7 121.3 358.3C125.8 359 130.2 359.7 134.5 360.4C144 357.4 153.2 354.5 162.3 352C149.7 347.9 136.8 344.2 125.8 341.7Z" class="" fill="#000000" fill-opacity="1"></path><path d="M282.7 348.4C276.8 348.8 270.8 349.3 264.7 349.9L264.7 426.6C270.8 426.4 276.8 426 282.7 425.6Z" class="" fill="#000000" fill-opacity="1"></path><path d="M426.7 364.9C426.7 364.9 408.4 368.5 408.7 368.4L408.7 397.4C414.8 395.2 420.8 392.9 426.7 390.6Z" class="" fill="#000000" fill-opacity="1"></path><path d="M34.2 366.3C58.31 407.1 84.82 448.9 89.95 491L414.3 491C417.1 488.5 424.6 481.8 434.8 471.6C447.2 459.2 461.4 443.3 467.8 431.6C472.7 422.9 477.1 411.3 479.6 400.5C480.8 395.3 481.4 390.3 481.7 385.8C419 416.1 340.9 445 248.8 445L243.1 445L219.5 395.8C209.2 393.3 122.4 372.8 34.2 366.3Z" class="" fill="#42413b" fill-opacity="1"></path><path d="M51.05 433.2L43.69 442.9L59.69 494.8L72.01 492.6C69.5 473.9 61.52 453.9 51.05 433.2Z" class="selected" fill="#666332" fill-opacity="1"></path></g></g></svg>