<svg xmlns="http://www.w3.org/2000/svg" viewBox="0 0 40 40" width="40px" height="40px">
  <path fill="#000" d="M16.534,24.5c0.082-1.596,0.156-6.223-1.587-8.123c-0.185-0.202-0.384-0.369-0.597-0.501 C14.953,15.669,15.657,15.5,16,15.5c2.093,0,3.265,2.046,3.5,2.504V24.5H16.534z" />
  <path fill="#000" d="M16,16c1.676,0,2.704,1.598,3,2.13V24h-1.942c0.067-1.979-0.024-6.001-1.686-7.899 C15.63,16.039,15.857,16,16,16 M16,15c-0.679,0-2.543,0.543-3,1c3.778,0,3,9,3,9h4v-7.112C20,17.888,18.695,15,16,15L16,15z" />
  <path fill="#f89903" d="M6.429,29.5c-4.76,0-4.924-6.15-4.929-6.499C1.509,23.113,2.008,27.5,6.429,27.5 c4.415,0,5.061-4.389,5.066-4.433c0.002-0.256,0.004-0.519,0.005-0.787V23C11.491,23.249,11.222,29.5,6.429,29.5z M1.5,22.994 c0-0.84,0.102-1.599,0.272-2.306c-0.17,0.717-0.272,1.48-0.272,2.309C1.5,22.996,1.5,22.995,1.5,22.994z M11.5,14.998 c0,0-0.004-2.344,0-2.995C11.52,8.454,12.754,6.5,14.977,6.5c3.534,0,4.428,3.152,4.516,6h-0.006 c-0.076-1.206-0.455-2.158-1.129-2.837C17.589,8.892,16.46,8.5,15,8.5c-3.245,0-3.491,6.219-3.5,6.483v0.089 C11.5,15.023,11.5,14.998,11.5,14.998z M5.016,9.5C4.332,9.479,2.991,8.913,2.368,8.622C1.99,7.756,1.702,5.09,1.562,3.025 c1.297,1.036,3.692,3.354,3.921,6.489L5.016,9.5z" />
  <path fill="#000" d="M2.153 4.2c1.113 1.067 2.428 2.721 2.765 4.791-.515-.063-1.46-.424-2.158-.74C2.528 7.561 2.306 5.937 2.153 4.2M15 7c1.489 0 2.566.635 3.225 1.895C17.401 8.301 16.319 8 15 8c-1.329 0-2.217.824-2.81 1.91C12.505 8.33 13.28 7 15 7M9.994 26.774C9.332 27.978 8.238 29 6.429 29c-1.785 0-2.851-1.001-3.487-2.186C3.769 27.511 4.904 28 6.429 28 7.978 28 9.141 27.492 9.994 26.774M1 2c0 0 .279 5.77 1 7 0 0 1.984.968 3 1 0 5.344-4 7.614-4 13 0 0 .085 7 5.429 7S12 23 12 23s0-2.656 0-8c0 0 .201-6 3-6s4.013 1.518 4 4h1c0-3.308-.948-7-5-7-.008 0-.016 0-.024 0C12.614 6 11.022 7.918 11 12c-.003.653 0 3 0 3s.018 4.695 0 8c0 0-.542 4-4.571 4C2.4 27 2 23 2 23c0-5.089 4-7.571 4-13C6 5.08 1 2 1 2L1 2zM19.5 36.891c-1.872-1.708-4-3.995-4-4.891 0-.878 2.138-2.733 4-4.054V36.891z" />
  <path fill="#000" d="M19,28.934v6.805c-1.691-1.636-2.97-3.196-3-3.734C16.04,31.499,17.339,30.201,19,28.934 M20,27 c0,0-5,3.274-5,5s5,6,5,6V27L20,27z" />
  <path fill="#000" stroke="#000" stroke-miterlimit="10" d="M20,14.5c0,0-0.453-0.594-0.776-1.485 c-0.36-0.89-0.575-2.078-0.581-3.265c0.001-1.188,0.214-2.375,0.578-3.266C19.544,5.594,20,5,20,5s0.456,0.594,0.779,1.485 c0.362,0.89,0.577,2.078,0.578,3.265c-0.004,1.188-0.22,2.375-0.581,3.266C20.453,13.906,20,14.5,20,14.5z" />
  <path fill="#000" d="M20.5,24.5v-6.495c0.238-0.458,1.418-2.505,3.5-2.505c0.343,0,1.047,0.169,1.649,0.376 c-0.213,0.132-0.412,0.299-0.597,0.501c-1.743,1.9-1.669,6.527-1.587,8.123H20.5z" />
  <path fill="#000" d="M24,16c0.143,0,0.371,0.039,0.629,0.1c-1.663,1.898-1.753,5.921-1.687,7.9H21v-5.87 C21.298,17.594,22.326,16,24,16 M24,15c-2.695,0-4,2.888-4,2.888V25h4c0,0-0.778-9,3-9C26.543,15.543,24.679,15,24,15L24,15z" />
  <path fill="#f89903" d="M33.571,29.5c-4.645,0-5.047-6.029-5.07-6.489c0.03,0.237,0.725,4.489,5.07,4.489 c4.431,0,4.922-4.406,4.926-4.45c0.001-1.058-0.157-2.006-0.411-2.884C38.342,21.022,38.5,21.947,38.5,23 C38.496,23.259,38.354,29.5,33.571,29.5z M28.5,22.983v-0.029c0,0.012,0,0.023,0,0.034C28.5,22.986,28.5,22.984,28.5,22.983z M28.5,15c-0.009-0.283-0.255-6.5-3.5-6.5c-1.46,0-2.589,0.392-3.357,1.163c-0.674,0.679-1.053,1.631-1.129,2.837h-0.006 c0.088-2.848,0.979-6,4.492-6c2.246,0,3.48,1.954,3.5,5.503C28.504,12.654,28.5,14.999,28.5,15C28.5,14.999,28.5,14.999,28.5,15z M34.518,9.515c0.229-3.144,2.624-5.458,3.921-6.491c-0.141,2.064-0.429,4.732-0.807,5.599c-0.623,0.291-1.965,0.856-2.647,0.878 L34.518,9.515z" />
  <path fill="#000" d="M37.846,4.208c-0.153,1.734-0.375,3.353-0.606,4.043c-0.698,0.316-1.643,0.676-2.158,0.74 C35.421,6.932,36.734,5.279,37.846,4.208 M25.024,7c1.703,0,2.473,1.329,2.787,2.91C27.218,8.825,26.329,8,25,8 c-1.317,0-2.398,0.3-3.221,0.893C22.44,7.634,23.523,7,25.024,7 M30.004,26.772C30.856,27.491,32.02,28,33.571,28 c1.535,0,2.675-0.496,3.504-1.2c-0.634,1.192-1.703,2.2-3.504,2.2C31.76,29,30.665,27.975,30.004,26.772 M39,2c0,0-5,3.08-5,8 c0,5.429,4,7.911,4,13c0,0-0.4,4-4.429,4C29.542,27,29,23,29,23c-0.018-3.305,0-8,0-8s0.003-2.347,0-3 c-0.022-4.082-1.614-6-3.976-6C25.016,6,25.008,6,25,6c-4.052,0-5,3.692-5,7h1c-0.013-2.482,1.201-4,4-4s3,6,3,6c0,5.344,0,8,0,8 s0.228,7,5.571,7S39,23,39,23c0-5.386-4-7.656-4-13c1.016-0.032,3-1,3-1C38.721,7.77,39,2,39,2L39,2z" />
  <g>
    <path fill="#000" d="M20.5,27.946c1.862,1.32,4,3.176,4,4.054c0,0.896-2.128,3.183-4,4.891V27.946z" />
    <path fill="#000" d="M21,28.933c1.661,1.266,2.96,2.563,3,3.064c-0.031,0.542-1.309,2.104-3,3.741V28.933 M20,27v11 c0,0,5-4.274,5-6S20,27,20,27L20,27z" />
  </g>
  <g>
    <path fill="#fce008" d="M20,37.005c-1.014-1.831-3.5-6.848-3.5-12.005c0-3.701,0.975-5.992,1.834-8.013 c0.591-1.389,1.101-2.588,1.165-3.964c0.035-0.338,0.037-1.231-0.697-2.045C17.914,9.998,16.299,9.5,14,9.5l-0.056-0.013 c-1.659-0.226-4.95-0.912-6.541-2.898c2.172,1.634,5.386,1.935,7.454,1.935c0.405,0,0.729-0.011,0.94-0.018L16,8.5h0.619 l-0.13-0.605c-0.283-1.313-1.383-3.046-3.254-4.534c1.442,0.71,2.737,1.775,3.323,2.875L17.5,8.003V6 c0-0.396,0.344-1.528,1.016-2.586c0.065,2.746,0.322,3.701,0.554,4.557C19.291,8.792,19.5,9.567,19.5,12h1 c0-2.433,0.209-3.208,0.431-4.029c0.231-0.855,0.488-1.811,0.554-4.557C22.156,4.472,22.5,5.604,22.5,6v2.003l0.941-1.768 c0.586-1.1,1.881-2.165,3.323-2.875c-1.871,1.488-2.971,3.222-3.254,4.534L23.381,8.5H24l0.201,0.006 c0.211,0.007,0.536,0.018,0.941,0.018c2.069,0,5.282-0.301,7.454-1.935c-1.591,1.986-4.882,2.673-6.541,2.898l-0.139,0.02 c-0.015,0-0.029,0-0.045,0c-2.193,0-3.792,0.497-4.674,1.472c-0.734,0.813-0.732,1.707-0.697,2.053 c0.064,1.368,0.574,2.567,1.165,3.956C22.525,19.008,23.5,21.299,23.5,25C23.5,30.164,21.015,35.175,20,37.005z" />
    <path fill="#000" d="M21.882,5.443C21.96,5.697,22,5.894,22,6v3.764c-0.368,0.188-0.689,0.41-0.962,0.666 c0.066-1.182,0.213-1.725,0.376-2.329C21.583,7.473,21.766,6.793,21.882,5.443 M18.118,5.443c0.116,1.35,0.299,2.03,0.469,2.658 c0.163,0.603,0.309,1.147,0.376,2.329C18.689,10.174,18.368,9.952,18,9.764V6C18,5.894,18.04,5.697,18.118,5.443 M22.915,8.287 L22.762,9H24c0.038,0,0.1,0.002,0.185,0.005c0.215,0.007,0.545,0.018,0.958,0.018c0.003,0,0.006,0,0.009,0 c-1.19,0.069-2.185,0.289-2.979,0.656L22.915,8.287 M17.085,8.287l0.742,1.393c-0.794-0.368-1.789-0.587-2.979-0.656 c0.003,0,0.006,0,0.009,0c0.413,0,0.743-0.011,0.958-0.018C15.9,9.002,15.962,9,16,9h1.238L17.085,8.287 M20.09,12 c-0.044,0.169-0.074,0.342-0.09,0.515c-0.015-0.174-0.045-0.346-0.09-0.515H20.09 M20,13.045c0.001,0.008,0.001,0.015,0.002,0.023 c0.073,1.456,0.622,2.748,1.204,4.114C22.047,19.16,23,21.4,23,25c0,4.409-1.868,8.727-3,10.94c-1.132-2.213-3-6.531-3-10.94 c0-3.6,0.953-5.84,1.794-7.817c0.581-1.367,1.131-2.658,1.204-4.114C19.999,13.061,19.999,13.053,20,13.045 M30,2 c-2.453,0-5.841,1.823-7,4c0-0.735-0.728-2.728-2-4c0,7.097-1,4.628-1,10c0-5.372-1-2.903-1-10c-1.272,1.272-2,3.265-2,4 c-1.159-2.177-4.547-4-7-4c3.478,1.527,5.604,4.162,6,6c-0.137,0-0.553,0.024-1.143,0.024C12.526,8.024,7.466,7.654,6,4 c0,5.174,7.533,5.921,8,6c5.513,0,4.997,2.943,5,3c-0.15,3.205-3,5.648-3,12c0,6.674,4,13,4,13s4-6.326,4-13 c0-6.352-2.85-8.795-3-12c0.003-0.057-0.513-3,5-3c0.467-0.079,8-0.826,8-6c-1.466,3.654-6.526,4.024-8.857,4.024 C24.552,8.024,24.137,8,24,8C24.396,6.162,26.522,3.527,30,2L30,2z" />
  </g>
  <path fill="#000" d="M19 12L20 13 21 12zM12 9H13V10H12zM27 9H28V10H27z" />
</svg>
